<?xml version="1.0" encoding="UTF-8" standalone="no"?>
<!-- Created with Inkscape (http://www.inkscape.org/) -->

<svg
   xmlns:dc="http://purl.org/dc/elements/1.1/"
   xmlns:cc="http://creativecommons.org/ns#"
   xmlns:rdf="http://www.w3.org/1999/02/22-rdf-syntax-ns#"
   xmlns:svg="http://www.w3.org/2000/svg"
   xmlns="http://www.w3.org/2000/svg"
   xmlns:xlink="http://www.w3.org/1999/xlink"
   xmlns:sodipodi="http://sodipodi.sourceforge.net/DTD/sodipodi-0.dtd"
   xmlns:inkscape="http://www.inkscape.org/namespaces/inkscape"
   version="1.0"
   width="64"
   height="64"
   id="svg2031"
   inkscape:version="0.48.3.1 r9886"
   sodipodi:docname="logo.svg"
   inkscape:export-filename="springerle-logo.png"
   inkscape:export-xdpi="90"
   inkscape:export-ydpi="90">
  <sodipodi:namedview
     pagecolor="#ffffff"
     bordercolor="#666666"
     borderopacity="1"
     objecttolerance="10"
     gridtolerance="10"
     guidetolerance="10"
     inkscape:pageopacity="1"
     inkscape:pageshadow="2"
     inkscape:window-width="1457"
     inkscape:window-height="1023"
     id="namedview26"
     showgrid="false"
     inkscape:zoom="2.6125001"
     inkscape:cx="32"
     inkscape:cy="32"
     inkscape:window-x="53"
     inkscape:window-y="241"
     inkscape:window-maximized="0"
     inkscape:current-layer="layer3"
     width="64px" />
  <metadata
     id="metadata28">
    <rdf:RDF>
      <cc:Work
         rdf:about="">
        <dc:format>image/svg+xml</dc:format>
        <dc:type
           rdf:resource="http://purl.org/dc/dcmitype/StillImage" />
        <dc:title></dc:title>
      </cc:Work>
    </rdf:RDF>
  </metadata>
  <defs
     id="defs2033">
    <linearGradient
       inkscape:collect="always"
       id="linearGradient4988">
      <stop
         style="stop-color:#0f0c01;stop-opacity:1;"
         offset="0"
         id="stop4990" />
      <stop
         style="stop-color:#0f0c01;stop-opacity:0;"
         offset="1"
         id="stop4992" />
    </linearGradient>
    <linearGradient
       id="linearGradient5265"
       inkscape:collect="always">
      <stop
         id="stop5267"
         offset="0"
         style="stop-color:#e0c4a0;stop-opacity:1;" />
      <stop
         id="stop5269"
         offset="1"
         style="stop-color:#e0c4a0;stop-opacity:0;" />
    </linearGradient>
    <filter
       color-interpolation-filters="sRGB"
       inkscape:menu-tooltip="Ridged border with inner bevel"
       inkscape:menu="Bevels"
       inkscape:label="Drop Shadow"
       id="filter5249"
       style="color-interpolation-filters:sRGB;">
      <feMorphology
         result="result91"
         in="SourceAlpha"
         radius="4.3"
         id="feMorphology5251" />
      <feComposite
         in="SourceGraphic"
         operator="out"
         in2="result91"
         id="feComposite5253" />
      <feGaussianBlur
         stdDeviation="1.2"
         result="result0"
         id="feGaussianBlur5255" />
      <feDiffuseLighting
         result="result92"
         diffuseConstant="1"
         id="feDiffuseLighting5257">
        <feDistantLight
           azimuth="225"
           elevation="66"
           id="feDistantLight5259" />
      </feDiffuseLighting>
      <feBlend
         result="result93"
         mode="multiply"
         in2="SourceGraphic"
         id="feBlend5261" />
      <feComposite
         operator="in"
         in2="SourceAlpha"
         id="feComposite5263"
         result="fbSourceGraphic" />
      <feColorMatrix
         result="fbSourceGraphicAlpha"
         in="fbSourceGraphic"
         values="0 0 0 -1 0 0 0 0 -1 0 0 0 0 -1 0 0 0 0 1 0"
         id="feColorMatrix4882" />
      <feFlood
         id="feFlood4884"
         flood-opacity="0.6"
         flood-color="rgb(0,0,0)"
         result="flood"
         in="fbSourceGraphic" />
      <feComposite
         id="feComposite4886"
         in2="fbSourceGraphic"
         in="flood"
         operator="in"
         result="composite1" />
      <feGaussianBlur
         id="feGaussianBlur4888"
         in="composite"
         stdDeviation="4"
         result="blur" />
      <feOffset
         id="feOffset4890"
         dx="4"
         dy="6"
         result="offset" />
      <feComposite
         id="feComposite4892"
         in2="offset"
         in="fbSourceGraphic"
         operator="over"
         result="composite2" />
    </filter>
    <radialGradient
       r="28.916797"
       fy="237.17791"
       fx="47.466364"
       cy="237.17791"
       cx="47.466364"
       gradientUnits="userSpaceOnUse"
       id="radialGradient4677"
       xlink:href="#linearGradient5265"
       inkscape:collect="always" />
    <filter
       id="filter4828"
       inkscape:label="Darken edges"
       inkscape:menu="Shadows and Glows"
       inkscape:menu-tooltip="Darken the edges with an inner blur"
       color-interpolation-filters="sRGB">
      <feGaussianBlur
         id="feGaussianBlur4830"
         stdDeviation="6"
         in="SourceGraphic"
         result="result0" />
      <feDiffuseLighting
         id="feDiffuseLighting4832"
         lighting-color="rgb(255,255,255)"
         diffuseConstant="1"
         surfaceScale="4"
         result="result5">
        <feDistantLight
           id="feDistantLight4834"
           elevation="45"
           azimuth="235" />
      </feDiffuseLighting>
      <feComposite
         id="feComposite4836"
         in2="SourceGraphic"
         k1="1.4"
         in="result5"
         result="fbSourceGraphic"
         operator="arithmetic" />
      <feGaussianBlur
         id="feGaussianBlur4838"
         result="result0"
         in="fbSourceGraphic"
         stdDeviation="6" />
      <feSpecularLighting
         id="feSpecularLighting4840"
         specularExponent="25"
         specularConstant="1"
         surfaceScale="4"
         lighting-color="rgb(255,255,255)"
         result="result1"
         in="result0">
        <feDistantLight
           id="feDistantLight4842"
           azimuth="235"
           elevation="45" />
      </feSpecularLighting>
      <feComposite
         id="feComposite4844"
         in2="result1"
         k3="1"
         k2="1"
         operator="arithmetic"
         result="result4"
         in="fbSourceGraphic" />
      <feComposite
         id="feComposite4846"
         in2="SourceGraphic"
         operator="in"
         result="fbSourceGraphic"
         in="result4" />
      <feColorMatrix
         result="fbSourceGraphicAlpha"
         in="fbSourceGraphic"
         values="0 0 0 -1 0 0 0 0 -1 0 0 0 0 -1 0 0 0 0 1 0"
         id="feColorMatrix4856" />
      <feGaussianBlur
         id="feGaussianBlur4858"
         stdDeviation="6"
         in="fbSourceGraphic"
         result="result0" />
      <feDiffuseLighting
         id="feDiffuseLighting4860"
         diffuseConstant="1"
         surfaceScale="10"
         result="result5">
        <feDistantLight
           id="feDistantLight4862"
           elevation="25"
           azimuth="235" />
      </feDiffuseLighting>
      <feComposite
         id="feComposite4864"
         in2="fbSourceGraphic"
         k1="1"
         in="result5"
         result="fbSourceGraphic"
         operator="arithmetic"
         k2="0"
         k3="0.6" />
      <feColorMatrix
         result="fbSourceGraphicAlpha"
         in="fbSourceGraphic"
         values="0 0 0 -1 0 0 0 0 -1 0 0 0 0 -1 0 0 0 0 1 0"
         id="feColorMatrix4874" />
      <feGaussianBlur
         id="feGaussianBlur4876"
         result="result6"
         stdDeviation="1.5"
         in="fbSourceGraphic" />
      <feComposite
         id="feComposite4878"
         in2="result6"
         operator="atop"
         in="fbSourceGraphic"
         result="result8" />
      <feComposite
         id="feComposite4880"
         in2="fbSourceGraphicAlpha"
         in="result8"
         operator="atop"
         result="result9" />
    </filter>
    <radialGradient
       inkscape:collect="always"
       xlink:href="#linearGradient5265"
       id="radialGradient4872"
       cx="32"
       cy="-48"
       fx="32"
       fy="-48"
       r="38.400002"
       gradientTransform="matrix(1,0,0,1.0019531,0,0.09375)"
       gradientUnits="userSpaceOnUse" />
    <linearGradient
       inkscape:collect="always"
       xlink:href="#linearGradient4988"
       id="linearGradient4998"
       x1="0.59040833"
       y1="188.63066"
       x2="106.24611"
       y2="299.19312"
       gradientUnits="userSpaceOnUse" />
    <filter
       inkscape:collect="always"
       id="filter4250">
      <feGaussianBlur
         inkscape:collect="always"
         stdDeviation="0.20490519"
         id="feGaussianBlur4252" />
    </filter>
    <filter
       id="filter4282"
       inkscape:label="Emboss"
       inkscape:menu-tooltip="Emboss effect : Colors of the original images are preserved or modified by Blend"
       inkscape:menu="Bumps"
       height="1"
       width="1"
       y="0"
       x="0"
       color-interpolation-filters="sRGB">
      <feColorMatrix
         id="feColorMatrix4284"
         result="result2"
         type="luminanceToAlpha" />
      <feDiffuseLighting
         id="feDiffuseLighting4286"
         diffuseConstant="0.6"
         result="result1"
         surfaceScale="-10">
        <feDistantLight
           id="feDistantLight4288"
           azimuth="225"
           elevation="35" />
      </feDiffuseLighting>
      <feComposite
         id="feComposite4290"
         in2="SourceGraphic"
         result="result3"
         k3="0.5"
         k1="1.5"
         in="result1"
         operator="arithmetic" />
      <feComposite
         id="feComposite4292"
         in2="result3"
         result="result5"
         operator="in"
         in="result3" />
      <feBlend
         id="feBlend4294"
         in2="result1"
         result="result6"
         mode="normal"
         in="result5" />
      <feComposite
         id="feComposite4296"
         in2="result6"
         result="result7"
         operator="arithmetic"
         k2="1" />
      <feComposite
         id="feComposite4298"
         in2="SourceGraphic"
         in="result7"
         operator="in" />
    </filter>
  </defs>
  <g
     style="display:inline"
     inkscape:label="Helper"
     id="layer4"
     inkscape:groupmode="layer">
    <rect
       ry="2.2506945"
       rx="1160.4464"
       y="-127.3262"
       x="-127.3262"
       height="318.6524"
       width="318.6524"
       id="rect3683"
       style="fill:none;stroke:#000000;stroke-width:1.34758639;stroke-linecap:round;stroke-linejoin:round;stroke-miterlimit:4;stroke-opacity:1;stroke-dasharray:none;stroke-dashoffset:0;display:inline" />
  </g>
  <g
     style="display:inline"
     inkscape:label="Frame"
     id="layer5"
     inkscape:groupmode="layer">
    <path
       style="fill:#d9c2a7;fill-opacity:1;fill-rule:evenodd;stroke:none"
       d="M 4.53125,-0.0625 C 3.2325069,-0.0625 2.1163372,0.645057 1.5,1.6875 0.59737257,2.314693 0,3.348829 0,4.53125 0,5.250519 0.21928295,5.914466 0.59375,6.46875 0.2286615,7.018495 0,7.665613 0,8.375 0,9.277799 0.37281558,10.101136 0.9375,10.71875 0.37281558,11.336364 0,12.128451 0,13.03125 0,13.934049 0.37281558,14.757386 0.9375,15.375 0.37281558,15.992614 0,16.784701 0,17.6875 0,18.592147 0.3707565,19.413212 0.9375,20.03125 0.37281558,20.648864 0,21.440951 0,22.34375 0,23.248397 0.3707565,24.069462 0.9375,24.6875 0.37281558,25.305114 0,26.097201 0,27 0,27.904647 0.3707565,28.725712 0.9375,29.34375 0.37281558,29.961364 0,30.753451 0,31.65625 0,32.553976 0.34720284,33.383572 0.90625,34 0.35649808,34.614388 0,35.423178 0,36.3125 0,37.201823 0.35649808,38.010612 0.90625,38.625 0.34720284,39.241428 0,40.071024 0,40.96875 0,41.866476 0.34720284,42.696072 0.90625,43.3125 0.35649808,43.926888 0,44.735678 0,45.625 0,46.514323 0.35649808,47.323112 0.90625,47.9375 0.34720284,48.553928 0,49.383524 0,50.28125 0,51.184049 0.37281558,51.976136 0.9375,52.59375 0.3707565,53.211788 0,54.032853 0,54.9375 0,55.840299 0.37281558,56.632386 0.9375,57.25 0.3707565,57.868038 0,58.689103 0,59.59375 0,60.817495 0.63738098,61.881422 1.59375,62.5 c 0.6363969,0.941991 1.7151223,1.5625 2.9375,1.5625 1.1200508,0 2.1010787,-0.532017 2.75,-1.34375 0.6489213,0.811733 1.6299492,1.34375 2.75,1.34375 1.120051,0 2.101079,-0.532017 2.75,-1.34375 0.648921,0.811733 1.629949,1.34375 2.75,1.34375 1.111481,0 2.100747,-0.511421 2.75,-1.3125 0.649353,0.796945 1.641853,1.3125 2.75,1.3125 1.108147,0 2.069397,-0.515555 2.71875,-1.3125 0.649253,0.801079 1.638519,1.3125 2.75,1.3125 1.120051,0 2.101079,-0.532017 2.75,-1.34375 0.648921,0.811733 1.629949,1.34375 2.75,1.34375 1.120051,0 2.101079,-0.532017 2.75,-1.34375 0.648921,0.811733 1.629949,1.34375 2.75,1.34375 1.111481,0 2.100747,-0.511421 2.75,-1.3125 0.649353,0.796945 1.610603,1.3125 2.71875,1.3125 1.108147,0 2.100647,-0.515555 2.75,-1.3125 0.649253,0.801079 1.638519,1.3125 2.75,1.3125 1.120051,0 2.101079,-0.532017 2.75,-1.34375 0.648921,0.811733 1.629949,1.34375 2.75,1.34375 1.120051,0 2.101079,-0.532017 2.75,-1.34375 0.648921,0.811733 1.629949,1.34375 2.75,1.34375 1.222378,0 2.301103,-0.620509 2.9375,-1.5625 C 63.362619,61.881422 64,60.817495 64,59.59375 64,58.689103 63.629244,57.868038 63.0625,57.25 63.627184,56.632386 64,55.840299 64,54.9375 64,54.032853 63.629244,53.211788 63.0625,52.59375 63.627184,51.976136 64,51.184049 64,50.28125 64,49.383524 63.652797,48.553928 63.09375,47.9375 63.643502,47.323112 64,46.514323 64,45.625 64,44.735678 63.643502,43.926888 63.09375,43.3125 63.652797,42.696072 64,41.866476 64,40.96875 64,40.071024 63.652797,39.241428 63.09375,38.625 63.643502,38.010612 64,37.201823 64,36.3125 64,35.423178 63.643502,34.614388 63.09375,34 63.652797,33.383572 64,32.553976 64,31.65625 64,30.753451 63.627184,29.961364 63.0625,29.34375 63.629244,28.725712 64,27.904647 64,27 64,26.097201 63.627184,25.305114 63.0625,24.6875 63.629244,24.069462 64,23.248397 64,22.34375 64,21.440951 63.627184,20.648864 63.0625,20.03125 63.629244,19.413212 64,18.592147 64,17.6875 64,16.784701 63.627184,15.992614 63.0625,15.375 63.627184,14.757386 64,13.934049 64,13.03125 64,12.128451 63.627184,11.336364 63.0625,10.71875 63.627184,10.101136 64,9.277799 64,8.375 64,7.665613 63.771339,7.018495 63.40625,6.46875 c 0.0051,-0.0076 -0.0051,-0.02359 0,-0.03125 C 63.771339,5.887756 64,5.240637 64,4.53125 64,3.348829 63.402627,2.314693 62.5,1.6875 62.48751,1.6788 62.48136,1.66477 62.46875,1.65625 c -0.621138,-1.022016 -1.716636,-1.71875 -3,-1.71875 -1.120051,0 -2.101079,0.532017 -2.75,1.34375 -0.648921,-0.811733 -1.629949,-1.34375 -2.75,-1.34375 -1.120051,0 -2.101079,0.532017 -2.75,1.34375 -0.648921,-0.811733 -1.629949,-1.34375 -2.75,-1.34375 -1.111481,0 -2.100747,0.511421 -2.75,1.3125 -0.649353,-0.796945 -1.641853,-1.3125 -2.75,-1.3125 -1.108147,0 -2.069397,0.515555 -2.71875,1.3125 -0.649253,-0.801079 -1.638519,-1.3125 -2.75,-1.3125 -1.120051,0 -2.101079,0.532017 -2.75,1.34375 C 34.101079,0.469517 33.120051,-0.0625 32,-0.0625 c -1.120051,0 -2.101079,0.532017 -2.75,1.34375 -0.648921,-0.811733 -1.629949,-1.34375 -2.75,-1.34375 -1.111481,0 -2.100747,0.511421 -2.75,1.3125 -0.649353,-0.796945 -1.610603,-1.3125 -2.71875,-1.3125 -1.108147,0 -2.100647,0.515555 -2.75,1.3125 -0.649253,-0.801079 -1.638519,-1.3125 -2.75,-1.3125 -1.120051,0 -2.101079,0.532017 -2.75,1.34375 -0.648921,-0.811733 -1.629949,-1.34375 -2.75,-1.34375 -1.1200508,0 -2.1010787,0.532017 -2.75,1.34375 C 6.6323287,0.469517 5.6513008,-0.0625 4.53125,-0.0625 z m 2.75,5.75 c 0.6489213,0.811733 1.6299492,1.34375 2.75,1.34375 1.120051,0 2.101079,-0.532017 2.75,-1.34375 0.648921,0.811733 1.629949,1.34375 2.75,1.34375 1.111481,0 2.100747,-0.511421 2.75,-1.3125 0.649353,0.796944 1.641853,1.3125 2.75,1.3125 1.108147,0 2.069397,-0.515556 2.71875,-1.3125 0.649253,0.801079 1.638519,1.3125 2.75,1.3125 1.120051,0 2.101079,-0.532017 2.75,-1.34375 0.648921,0.811733 1.629949,1.34375 2.75,1.34375 1.120051,0 2.101079,-0.532017 2.75,-1.34375 0.648921,0.811733 1.629949,1.34375 2.75,1.34375 1.111481,0 2.100747,-0.511421 2.75,-1.3125 0.649353,0.796944 1.610603,1.3125 2.71875,1.3125 1.108147,0 2.100647,-0.515556 2.75,-1.3125 0.649253,0.801079 1.638519,1.3125 2.75,1.3125 1.120051,0 2.101079,-0.532017 2.75,-1.34375 0.648921,0.811733 1.629949,1.34375 2.75,1.34375 1.120051,0 2.101079,-0.532017 2.75,-1.34375 0.260155,0.325427 0.548396,0.595561 0.90625,0.8125 -0.351506,0.54289 -0.5625,1.180105 -0.5625,1.875 0,0.900919 0.343657,1.726572 0.90625,2.34375 -0.562593,0.617178 -0.90625,1.411581 -0.90625,2.3125 0,0.900919 0.343657,1.726572 0.90625,2.34375 -0.562593,0.617178 -0.90625,1.411581 -0.90625,2.3125 0,0.903012 0.341328,1.726087 0.90625,2.34375 -0.562593,0.617178 -0.90625,1.411581 -0.90625,2.3125 0,0.903012 0.341328,1.726087 0.90625,2.34375 -0.562593,0.617178 -0.90625,1.411581 -0.90625,2.3125 0,0.903012 0.341328,1.726087 0.90625,2.34375 -0.562593,0.617178 -0.90625,1.411581 -0.90625,2.3125 0,0.903012 0.341328,1.726087 0.90625,2.34375 -0.555043,0.615562 -0.90625,1.418388 -0.90625,2.3125 0,0.894113 0.351207,1.696938 0.90625,2.3125 -0.564922,0.617663 -0.90625,1.440738 -0.90625,2.34375 0,0.903012 0.341328,1.726087 0.90625,2.34375 -0.555043,0.615562 -0.90625,1.418388 -0.90625,2.3125 0,0.894113 0.351207,1.696938 0.90625,2.3125 -0.564922,0.617663 -0.90625,1.440738 -0.90625,2.34375 0,0.900919 0.343657,1.695322 0.90625,2.3125 -0.564922,0.617663 -0.90625,1.440738 -0.90625,2.34375 0,0.900919 0.343657,1.695322 0.90625,2.3125 -0.03504,0.03831 -0.06043,0.08514 -0.09375,0.125 -0.454795,0.230513 -0.840634,0.542698 -1.15625,0.9375 -0.648921,-0.811733 -1.629949,-1.34375 -2.75,-1.34375 -1.120051,0 -2.101079,0.532017 -2.75,1.34375 -0.648921,-0.811733 -1.629949,-1.34375 -2.75,-1.34375 -1.111481,0 -2.100747,0.511421 -2.75,1.3125 -0.649353,-0.796945 -1.641853,-1.3125 -2.75,-1.3125 -1.108147,0 -2.069397,0.515555 -2.71875,1.3125 -0.649253,-0.801079 -1.638519,-1.3125 -2.75,-1.3125 -1.120051,0 -2.101079,0.532017 -2.75,1.34375 -0.648921,-0.811733 -1.629949,-1.34375 -2.75,-1.34375 -1.120051,0 -2.101079,0.532017 -2.75,1.34375 -0.648921,-0.811733 -1.629949,-1.34375 -2.75,-1.34375 -1.111481,0 -2.100747,0.511421 -2.75,1.3125 -0.649353,-0.796945 -1.610603,-1.3125 -2.71875,-1.3125 -1.108147,0 -2.100647,0.515555 -2.75,1.3125 -0.649253,-0.801079 -1.638519,-1.3125 -2.75,-1.3125 -1.120051,0 -2.101079,0.532017 -2.75,1.34375 -0.648921,-0.811733 -1.629949,-1.34375 -2.75,-1.34375 -1.1200508,0 -2.1010787,0.532017 -2.75,1.34375 C 6.9656342,57.917698 6.579795,57.605513 6.125,57.375 6.0916844,57.335142 6.0662903,57.288312 6.03125,57.25 6.5938432,56.632822 6.9375,55.838419 6.9375,54.9375 6.9375,54.034488 6.5961717,53.211413 6.03125,52.59375 6.5938432,51.976572 6.9375,51.182169 6.9375,50.28125 6.9375,49.378238 6.5961717,48.555163 6.03125,47.9375 6.5862934,47.321938 6.9375,46.519113 6.9375,45.625 6.9375,44.730888 6.5862934,43.928062 6.03125,43.3125 6.5961717,42.694837 6.9375,41.871762 6.9375,40.96875 6.9375,40.065738 6.5961717,39.242663 6.03125,38.625 6.5862934,38.009438 6.9375,37.206613 6.9375,36.3125 6.9375,35.418388 6.5862934,34.615562 6.03125,34 6.5961717,33.382337 6.9375,32.559262 6.9375,31.65625 6.9375,30.755331 6.5938432,29.960928 6.03125,29.34375 6.5961717,28.726087 6.9375,27.903012 6.9375,27 c 0,-0.900919 -0.3436568,-1.695322 -0.90625,-2.3125 0.5649217,-0.617663 0.90625,-1.440738 0.90625,-2.34375 0,-0.900919 -0.3436568,-1.695322 -0.90625,-2.3125 0.5649217,-0.617663 0.90625,-1.440738 0.90625,-2.34375 0,-0.900919 -0.3436568,-1.695322 -0.90625,-2.3125 0.5625932,-0.617178 0.90625,-1.442831 0.90625,-2.34375 0,-0.900919 -0.3436568,-1.695322 -0.90625,-2.3125 C 6.5938432,10.101572 6.9375,9.275919 6.9375,8.375 6.9375,7.680191 6.7264259,7.042849 6.375,6.5 6.732854,6.283061 7.0210945,6.012927 7.28125,5.6875 z"
       id="path4820"
       inkscape:connector-curvature="0" />
    <path
       id="path3587"
       d="m 4.53125,-80.0625 c -1.298743,0 -2.4149128,0.707557 -3.0312499,1.75 C 0.5973725,-77.685307 0,-76.651171 0,-75.46875 c 0,0.719269 0.219283,1.383216 0.59375,1.9375 C 0.2286615,-72.981505 0,-72.334387 0,-71.625 c 0,0.902799 0.3728156,1.726137 0.9375,2.34375 C 0.3728156,-68.663636 0,-67.871549 0,-66.96875 0,-66.065951 0.3728156,-65.242614 0.9375,-64.625 0.3728156,-64.007386 0,-63.215299 0,-62.3125 c 0,0.904647 0.3707565,1.725712 0.9375,2.34375 C 0.3728156,-59.351136 0,-58.559049 0,-57.65625 c 0,0.904647 0.3707565,1.725712 0.9375,2.34375 C 0.3728156,-54.694886 0,-53.902799 0,-53 c 0,0.904647 0.3707565,1.725712 0.9375,2.34375 C 0.3728156,-50.038636 0,-49.246549 0,-48.34375 0,-47.446024 0.3472029,-46.616428 0.90625,-46 0.3564981,-45.385612 0,-44.576822 0,-43.6875 c 0,0.889323 0.3564981,1.698112 0.90625,2.3125 C 0.3472029,-40.758573 0,-39.928976 0,-39.03125 c 0,0.897726 0.3472029,1.727322 0.90625,2.343749 C 0.3564981,-36.073112 0,-35.264322 0,-34.375 c 0,0.889323 0.3564981,1.698112 0.90625,2.3125 C 0.3472029,-31.446072 0,-30.616476 0,-29.71875 c 0,0.902799 0.3728156,1.694886 0.9375,2.3125 C 0.3707565,-26.788212 0,-25.967146 0,-25.0625 0,-24.159701 0.3728156,-23.367614 0.9375,-22.75 0.3707565,-22.131962 0,-21.310897 0,-20.40625 c 0,1.223745 0.6373809,2.287672 1.59375,2.90625 0.6363969,0.941991 1.7151223,1.5625 2.9375,1.5625 1.1200508,0 2.101079,-0.532017 2.75,-1.34375 0.648921,0.811733 1.629949,1.34375 2.75,1.34375 1.120051,0 2.101079,-0.532017 2.75,-1.34375 0.648921,0.811733 1.629949,1.34375 2.75,1.34375 1.111481,0 2.100747,-0.511421 2.75,-1.3125 0.649354,0.796945 1.641853,1.3125 2.75,1.3125 1.108147,0 2.069397,-0.515555 2.71875,-1.3125 0.649253,0.801079 1.638519,1.3125 2.75,1.3125 1.120051,0 2.101079,-0.532017 2.75,-1.34375 0.648921,0.811733 1.629949,1.34375 2.75,1.34375 1.120051,0 2.101079,-0.532017 2.75,-1.34375 0.648921,0.811733 1.629949,1.34375 2.75,1.34375 1.111481,0 2.100747,-0.511421 2.75,-1.3125 0.649353,0.796945 1.610603,1.3125 2.71875,1.3125 1.108147,0 2.100647,-0.515555 2.75,-1.3125 0.649253,0.801079 1.638519,1.3125 2.75,1.3125 1.120051,0 2.101079,-0.532017 2.75,-1.34375 0.648921,0.811733 1.629949,1.34375 2.75,1.34375 1.120051,0 2.101079,-0.532017 2.75,-1.34375 0.648921,0.811733 1.629949,1.34375 2.75,1.34375 1.222378,0 2.301103,-0.620509 2.9375,-1.5625 C 63.362619,-18.118578 64,-19.182505 64,-20.40625 64,-21.310897 63.629244,-22.131962 63.0625,-22.75 63.627184,-23.367614 64,-24.159701 64,-25.0625 64,-25.967146 63.629244,-26.788212 63.0625,-27.40625 63.627184,-28.023864 64,-28.815951 64,-29.71875 64,-30.616476 63.652797,-31.446072 63.09375,-32.0625 63.643502,-32.676888 64,-33.485677 64,-34.375 64,-35.264322 63.643502,-36.073112 63.09375,-36.687501 63.652797,-37.303928 64,-38.133524 64,-39.03125 64,-39.928976 63.652797,-40.758573 63.09375,-41.375 63.643502,-41.989388 64,-42.798177 64,-43.6875 64,-44.576822 63.643502,-45.385612 63.09375,-46 63.652797,-46.616428 64,-47.446024 64,-48.34375 c 0,-0.902799 -0.372816,-1.694886 -0.9375,-2.3125 C 63.629244,-51.274288 64,-52.095353 64,-53 c 0,-0.902799 -0.372816,-1.694886 -0.9375,-2.3125 0.566744,-0.618038 0.9375,-1.439103 0.9375,-2.34375 0,-0.902799 -0.372816,-1.694886 -0.9375,-2.3125 C 63.629244,-60.586788 64,-61.407853 64,-62.3125 64,-63.215299 63.627184,-64.007386 63.0625,-64.625 63.627184,-65.242614 64,-66.065951 64,-66.96875 c 0,-0.902799 -0.372816,-1.694886 -0.9375,-2.3125 C 63.627184,-69.898863 64,-70.722201 64,-71.625 c 0,-0.709387 -0.228661,-1.356505 -0.59375,-1.90625 0.0052,-0.0076 -0.0051,-0.02359 0,-0.03125 C 63.771339,-74.112244 64,-74.759363 64,-75.46875 c 0,-1.182421 -0.597373,-2.216557 -1.5,-2.84375 -0.01249,-0.0087 -0.01864,-0.02273 -0.03124,-0.03125 -0.621148,-1.022015 -1.716646,-1.71875 -3.00001,-1.71875 -1.120051,0 -2.101079,0.532017 -2.75,1.34375 -0.648921,-0.811733 -1.629949,-1.34375 -2.75,-1.34375 -1.120051,0 -2.101079,0.532017 -2.75,1.34375 -0.648921,-0.811733 -1.629949,-1.34375 -2.75,-1.34375 -1.111481,0 -2.100747,0.511421 -2.75,1.3125 -0.649353,-0.796944 -1.641853,-1.3125 -2.75,-1.3125 -1.108147,0 -2.069397,0.515556 -2.71875,1.3125 -0.649253,-0.801079 -1.638519,-1.3125 -2.75,-1.3125 -1.120051,0 -2.101079,0.532017 -2.75,1.34375 -0.648921,-0.811733 -1.629949,-1.34375 -2.75,-1.34375 -1.120051,0 -2.101079,0.532017 -2.75,1.34375 -0.648921,-0.811733 -1.629949,-1.34375 -2.75,-1.34375 -1.111481,0 -2.100747,0.511421 -2.75,1.3125 -0.649353,-0.796944 -1.610603,-1.3125 -2.71875,-1.3125 -1.108147,0 -2.100646,0.515556 -2.75,1.3125 -0.649253,-0.801079 -1.638519,-1.3125 -2.75,-1.3125 -1.120051,0 -2.101079,0.532017 -2.75,1.34375 -0.648921,-0.811733 -1.629949,-1.34375 -2.75,-1.34375 -1.120051,0 -2.101079,0.532017 -2.75,1.34375 -0.648921,-0.811733 -1.6299492,-1.34375 -2.75,-1.34375 z m 2.75,5.75 c 0.648921,0.811733 1.629949,1.34375 2.75,1.34375 1.120051,0 2.101079,-0.532017 2.75,-1.34375 0.648921,0.811733 1.629949,1.34375 2.75,1.34375 1.111481,0 2.100747,-0.511421 2.75,-1.3125 0.649354,0.796945 1.641853,1.3125 2.75,1.3125 1.108147,0 2.069397,-0.515555 2.71875,-1.3125 0.649253,0.801079 1.638519,1.3125 2.75,1.3125 1.120051,0 2.101079,-0.532017 2.75,-1.34375 0.648921,0.811733 1.629949,1.34375 2.75,1.34375 1.120051,0 2.101079,-0.532017 2.75,-1.34375 0.648921,0.811733 1.629949,1.34375 2.75,1.34375 1.111481,0 2.100747,-0.511421 2.75,-1.3125 0.649353,0.796945 1.610603,1.3125 2.71875,1.3125 1.108147,0 2.100647,-0.515555 2.75,-1.3125 0.649253,0.801079 1.638519,1.3125 2.75,1.3125 1.120051,0 2.101079,-0.532017 2.75,-1.34375 0.648921,0.811733 1.629949,1.34375 2.75,1.34375 1.120051,0 2.101079,-0.532017 2.75,-1.34375 0.260155,0.325427 0.548396,0.595562 0.90625,0.8125 -0.351506,0.54289 -0.5625,1.180105 -0.5625,1.875 0,0.900919 0.343657,1.726572 0.90625,2.34375 -0.562593,0.617178 -0.90625,1.411581 -0.90625,2.3125 0,0.900919 0.343657,1.726572 0.90625,2.34375 -0.562593,0.617178 -0.90625,1.411581 -0.90625,2.3125 0,0.903012 0.341328,1.726087 0.90625,2.34375 -0.562593,0.617178 -0.90625,1.411581 -0.90625,2.3125 0,0.903012 0.341328,1.726087 0.90625,2.34375 -0.562593,0.617178 -0.90625,1.411581 -0.90625,2.3125 0,0.903012 0.341328,1.726087 0.90625,2.34375 -0.562593,0.617178 -0.90625,1.411581 -0.90625,2.3125 0,0.903012 0.341328,1.726087 0.90625,2.34375 -0.555043,0.615562 -0.90625,1.418388 -0.90625,2.3125 0,0.894114 0.351207,1.696938 0.90625,2.3125 -0.564922,0.617663 -0.90625,1.440738 -0.90625,2.34375 0,0.903012 0.341328,1.726087 0.90625,2.343749 -0.555043,0.615563 -0.90625,1.418389 -0.90625,2.312501 0,0.894113 0.351207,1.696938 0.90625,2.3125 -0.564922,0.617663 -0.90625,1.440738 -0.90625,2.34375 0,0.900919 0.343657,1.695322 0.90625,2.3125 -0.564922,0.617663 -0.90625,1.440739 -0.90625,2.34375 0,0.900919 0.343657,1.695322 0.90625,2.3125 -0.03504,0.03831 -0.06043,0.08514 -0.09376,0.125 -0.454794,0.230514 -0.840633,0.542698 -1.156249,0.9375 -0.648921,-0.811733 -1.62995,-1.34375 -2.75,-1.34375 -1.120051,0 -2.101079,0.532017 -2.75,1.34375 -0.648921,-0.811733 -1.62995,-1.34375 -2.75,-1.34375 -1.111481,0 -2.100747,0.511421 -2.75,1.3125 -0.649354,-0.796945 -1.641853,-1.3125 -2.75,-1.3125 -1.108147,0 -2.069397,0.515555 -2.71875,1.3125 -0.649253,-0.801079 -1.638519,-1.3125 -2.75,-1.3125 -1.120052,0 -2.101079,0.532017 -2.75,1.34375 -0.648912,-0.811733 -1.62994,-1.34375 -2.749991,-1.34375 -1.120051,0 -2.101079,0.532017 -2.75,1.34375 -0.648921,-0.811733 -1.629949,-1.34375 -2.75,-1.34375 -1.111481,0 -2.100747,0.511421 -2.75,1.3125 -0.649353,-0.796945 -1.610603,-1.3125 -2.71875,-1.3125 -1.108147,0 -2.100646,0.515555 -2.75,1.3125 -0.649253,-0.801079 -1.638519,-1.3125 -2.75,-1.3125 -1.120051,0 -2.101079,0.532017 -2.75,1.34375 -0.648921,-0.811733 -1.629949,-1.34375 -2.75,-1.34375 -1.120051,0 -2.101079,0.532017 -2.75,1.34375 -0.315616,-0.394802 -0.701455,-0.706986 -1.15625,-0.9375 -0.03332,-0.03986 -0.05871,-0.08668 -0.09375,-0.125 0.562593,-0.617178 0.90625,-1.411581 0.90625,-2.3125 0,-0.903011 -0.341328,-1.726087 -0.90625,-2.34375 0.562593,-0.617178 0.90625,-1.411581 0.90625,-2.3125 0,-0.903012 -0.341328,-1.726087 -0.90625,-2.34375 0.555043,-0.615562 0.90625,-1.418387 0.90625,-2.3125 0,-0.894112 -0.351207,-1.696938 -0.90625,-2.312501 0.564922,-0.617662 0.90625,-1.440737 0.90625,-2.343749 0,-0.903012 -0.341328,-1.726087 -0.90625,-2.34375 0.555043,-0.615562 0.90625,-1.418386 0.90625,-2.3125 0,-0.894112 -0.351207,-1.696938 -0.90625,-2.3125 0.564922,-0.617663 0.90625,-1.440738 0.90625,-2.34375 0,-0.900919 -0.343657,-1.695322 -0.90625,-2.3125 C 6.596172,-51.273913 6.9375,-52.096988 6.9375,-53 c 0,-0.900919 -0.343657,-1.695322 -0.90625,-2.3125 0.564922,-0.617663 0.90625,-1.440738 0.90625,-2.34375 0,-0.900919 -0.343657,-1.695322 -0.90625,-2.3125 0.564922,-0.617663 0.90625,-1.440738 0.90625,-2.34375 0,-0.900919 -0.343657,-1.695322 -0.90625,-2.3125 0.562593,-0.617178 0.90625,-1.442831 0.90625,-2.34375 0,-0.900919 -0.343657,-1.695322 -0.90625,-2.3125 0.562593,-0.617178 0.90625,-1.442831 0.90625,-2.34375 0,-0.694809 -0.211074,-1.332151 -0.5625,-1.875 0.357854,-0.216938 0.646095,-0.487073 0.90625,-0.8125 z"
       style="fill:url(#radialGradient4872);fill-opacity:1;fill-rule:evenodd;stroke:none;filter:url(#filter4828)"
       inkscape:connector-curvature="0"
       transform="matrix(-1,0,0,-1,64,-16)" />
  </g>
  <g
     style="display:inline"
     inkscape:label="Main"
     id="layer3"
     inkscape:groupmode="layer">
    <rect
       style="fill:#e0c4a0;fill-opacity:1;fill-rule:evenodd;stroke:none"
       id="rect5223"
       width="58"
       height="58"
       x="3.0000014"
       y="3"
       rx="3.0686812"
       ry="6.2598629" />
    <rect
       style="display:inline;fill:none;stroke:url(#linearGradient4998);stroke-width:0.44515321000000002;stroke-linejoin:round;stroke-miterlimit:4;stroke-opacity:1;stroke-dasharray:none;filter:url(#filter4250)"
       id="rect4894"
       width="40.981037"
       height="40.981037"
       x="26.975845"
       y="216.68739"
       rx="0.88056058"
       ry="4.4230294"
       transform="matrix(1.1232088,0,0,1.1232088,-21.314638,-234.40032)" />
    <path
       inkscape:connector-curvature="0"
       id="path3116"
       style="font-size:59.95748138px;font-style:normal;font-variant:normal;font-weight:normal;font-stretch:normal;text-align:start;line-height:125%;letter-spacing:0px;word-spacing:0px;writing-mode:lr-tb;text-anchor:start;fill:#fafde3;fill-opacity:1;stroke:#edf28e;stroke-width:0.83274275;stroke-miterlimit:4;stroke-opacity:1;filter:url(#filter4282);font-family:Gothik Steel;-inkscape-font-specification:Gothik Steel"
       d="m 49.366059,221.68762 c 1.053925,4e-5 2.224968,0.7417 3.513134,2.22498 1.21006,0.54653 1.873651,0.81977 1.990776,0.81973 0.858745,-0.078 1.600405,-0.11706 2.224984,-0.1171 1.0344,4e-5 1.77606,0.42942 2.224985,1.28815 0.156114,0.35135 0.234184,0.70266 0.234209,1.05394 -2.5e-5,1.46384 -1.014929,3.02523 -3.044716,4.68418 l 0,0.1171 c 1.580887,0.78073 2.478687,1.17108 2.693403,1.17105 0.09756,-0.31225 0.722118,-0.50743 1.873671,-0.58553 1.795573,0.27328 2.693373,1.17108 2.693402,2.69341 -2.9e-5,0.87831 -0.468446,1.77611 -1.405253,2.6934 l 0,10.07098 c -2.8e-5,1.8932 -1.444315,3.06425 -4.332865,3.51314 -1.346723,10e-6 -3.337497,1.28815 -5.972327,3.86444 -0.663609,0.5465 -1.366235,0.81974 -2.10788,0.81973 -0.64409,1e-5 -2.088377,-0.93682 -4.332865,-2.8105 -0.409877,-0.31227 -1.073468,-0.58552 -1.990776,-0.81973 l -0.702627,0 c -1.756573,1e-5 -3.005686,0.50746 -3.747342,1.52235 -0.605044,0.23422 -1.151531,0.35133 -1.639463,0.35132 -2.029811,-0.31227 -3.044716,-1.32718 -3.044716,-3.04472 0,-1.132 0.780696,-2.264 2.34209,-3.39603 0.546484,-0.81971 1.522354,-1.99076 2.927611,-3.51313 -3.278927,-1.28813 -4.918387,-2.264 -4.918387,-2.92761 -0.07807,-0.42936 -0.117105,-0.74164 -0.117105,-0.93684 0.468418,-2.57627 0.702626,-3.98152 0.702627,-4.21576 l 0,-2.92761 c -1e-6,-0.33177 0.03903,-0.64404 0.117105,-0.93684 -0.07807,-0.31224 -0.117106,-0.62452 -0.117105,-0.93683 l 0,-0.58552 c -1e-6,-1.19053 0.468417,-2.0493 1.405254,-2.5763 1.619941,-0.39032 3.181332,-0.85873 4.684178,-1.40526 1.678488,-0.56596 3.825401,-2.20542 6.440745,-4.91838 0.546473,-0.1561 1.014891,-0.23417 1.405253,-0.23421 m -11.82755,9.01704 c -3e-6,0.56604 0.03903,0.99542 0.117105,1.28815 -0.07807,1.05397 -0.117108,1.95177 -0.117105,2.6934 l 0,1.75657 c -3e-6,0.46844 -0.234211,1.8737 -0.702626,4.21576 1.483319,0.50747 3.435058,1.44431 5.855222,2.81051 l 0,0.46842 c -0.331803,0.83926 -2.361612,3.18135 -6.089431,7.02626 l 0,0.46842 c -2e-6,0.13663 0.273241,0.37084 0.819731,0.70263 l 0.117104,0 c 0.234206,1e-5 0.897797,-0.42938 1.990776,-1.28815 0.644069,-0.39034 1.815112,-0.58551 3.513134,-0.58552 l 0.702626,0 c 1.424761,1e-5 3.532639,1.21009 6.323641,3.63023 0.507437,-0.29275 1.522341,-1.19055 3.044716,-2.6934 1.854133,-1.21007 3.493594,-1.91269 4.918387,-2.10788 1.483298,-0.25371 2.224959,-0.68309 2.224985,-1.28815 l 0,-10.77361 c -2.6e-5,-0.3708 0.429357,-0.91729 1.288149,-1.63946 l 0.117104,-0.58552 c -0.292788,-0.23418 -0.526996,-0.35129 -0.702626,-0.35132 -0.156166,3e-5 -0.702653,0.27328 -1.639463,0.81974 l -0.117104,0 c -0.526995,2e-5 -2.517768,-0.97585 -5.972328,-2.92762 l -0.936835,0 c -0.526988,1.17108 -1.619961,2.45923 -3.278925,3.86445 l -0.117104,0 c -2.185963,-0.78067 -3.278936,-1.40522 -3.278925,-1.87367 l 0,-3.04472 c -1.1e-5,-0.078 0.03902,-0.11707 0.117104,-0.1171 -0.07808,-0.15611 -0.117115,-0.27321 -0.117104,-0.35131 0.07806,-0.46839 0.195163,-0.7026 0.351313,-0.70263 2.127384,0.93687 3.766845,1.40528 4.918387,1.40525 1.171027,3e-5 2.693384,-0.54645 4.567074,-1.63946 0.780675,-0.89777 1.405231,-1.7175 1.873671,-2.45919 -2.2e-5,-0.25369 0.03901,-0.44887 0.117105,-0.58553 l -0.234209,-0.1171 c -1.424792,0.0781 -2.322592,0.11714 -2.693403,0.1171 -1.619963,-0.33176 -3.06425,-1.15149 -4.332864,-2.45919 l -0.585523,-0.58552 -0.468418,0 c -2.634862,2.77151 -4.937914,4.45 -6.909162,5.03549 -1.366225,0.62459 -2.849547,1.05397 -4.44997,1.28815 -0.156142,0.25376 -0.234212,0.44893 -0.234209,0.58552 m 11.82755,-4.91839 0.117105,0 c 1.737033,1.6395 3.259389,2.45923 4.567074,2.4592 l 0.585522,0 0,0.1171 c -0.312298,0.58556 -1.522377,1.13205 -3.630238,1.63947 l -0.819731,0 c -0.175673,3e-5 -1.346716,-0.42936 -3.513134,-1.28815 l -0.585522,0 0,-0.23421 c 0.780684,-0.40983 1.873657,-1.30763 3.278924,-2.69341 m -5.152596,3.86445 c -9e-6,0.0781 0.03903,0.11714 0.117105,0.11711 l -0.117105,0.23421 0,5.03549 c 0.565995,0.99541 1.50283,1.69804 2.810507,2.10788 0.702614,0.25375 1.053927,0.48796 1.05394,0.70262 l -0.117104,0.23421 c 0.117091,0.31231 0.234195,0.46844 0.351313,0.46842 l 0.234209,0 c 0.11709,2e-5 0.234195,-0.11708 0.351314,-0.35131 l -0.117105,-0.58553 0.702627,0 c 0.663576,3e-5 1.873654,-1.17101 3.630238,-3.51313 l 0.117104,0 c 2.02979,1.07349 3.122764,1.73708 3.278925,1.99078 l -0.234209,0.35131 c -2.2e-5,0.11713 0.117083,0.23423 0.351314,0.35131 l 0.117104,0 c 0.156117,3e-5 0.234187,-0.11708 0.234209,-0.35131 -0.07809,-0.15611 -0.117127,-0.27322 -0.117104,-0.35131 l 0.117104,0 c 0.292738,0.29278 0.917295,0.52699 1.873671,0.70262 l 0,1.17105 -0.234209,0 c -2.4e-5,-0.23419 -0.117128,-0.35129 -0.351313,-0.35132 -0.25375,0.0781 -0.409889,0.23424 -0.468418,0.46842 0.117081,0.31231 0.234186,0.46844 0.351314,0.46842 l 0.234208,0 0.351314,-0.23421 0.117104,0 0,2.5763 -0.585522,-0.1171 -0.234209,0 c -0.117128,2e-5 -0.273267,0.19519 -0.468418,0.58552 0.156116,0.46844 0.468395,0.70264 0.936836,0.70262 0.01949,-0.15611 0.09756,-0.23418 0.234209,-0.2342 l 0.117104,0 0,2.10788 -0.117104,0 c -0.175681,1e-5 -0.33182,-0.039 -0.468418,-0.11711 -0.468441,2e-5 -0.741685,0.3123 -0.819731,0.93684 l 0,0.1171 c 0.156116,0.39037 0.429359,0.58554 0.819731,0.58552 l 0.234209,0 0.234209,-0.1171 0.117104,0.23421 0,1.28815 c -2.4e-5,0.15615 -0.07809,0.23422 -0.234209,0.23421 l -1.171044,0 0,-1.17105 c -2.3e-5,-0.11709 -0.156162,-0.27323 -0.468418,-0.46842 l -0.351313,0 c -0.409888,2e-5 -0.683131,0.15616 -0.819732,0.46842 l 0,0.93684 c 0.0195,0.15615 0.09757,0.23422 0.234209,0.23421 l 1.405254,0 0,0.35131 c -0.09761,0.31229 -0.448923,0.46843 -1.05394,0.46842 l -0.351314,0 c -0.15616,1e-5 -0.23423,-0.0781 -0.234209,-0.23421 l 0,-0.58552 -1.639462,0 0,-1.17105 c -2e-5,-0.11709 -0.156159,-0.27323 -0.468418,-0.46842 l -0.351313,0 c -0.409884,2e-5 -0.683128,0.15616 -0.819731,0.46842 l 0,0.93684 c 0.0195,0.15615 0.09757,0.23422 0.234209,0.23421 l 1.405253,0 0,1.17104 c -2e-5,0.11712 -0.156159,0.27326 -0.468418,0.46842 l -0.351313,0 c -0.409884,1e-5 -0.683128,-0.15613 -0.819731,-0.46842 l 0,-1.17104 -1.05394,0 0,-0.11711 c 0.702609,-0.64406 1.053922,-1.30765 1.05394,-1.99077 l 0,-1.63947 0.234209,0 c -1.9e-5,0.1952 0.195155,0.35134 0.585522,0.46842 0.468398,-0.15612 0.702607,-0.31226 0.702627,-0.46842 l 0,-0.58552 c -0.117124,-0.31226 -0.390368,-0.4684 -0.819732,-0.46842 -0.312297,0.0781 -0.468436,0.23423 -0.468417,0.46842 l -0.234209,0 c -1.8e-5,-2.08834 -1.249131,-3.41552 -3.747343,-3.98155 l -1.405253,0 c -0.858778,2e-5 -2.146926,1.13203 -3.864447,3.39603 -0.761188,-0.52695 -1.151535,-0.95633 -1.171045,-1.28815 l -0.234209,-0.1171 -0.117104,0 -0.702627,0.1171 c -0.624563,-0.27322 -0.936842,-0.4684 -0.936836,-0.58552 0.312273,-0.15612 0.468412,-0.35129 0.468418,-0.58553 -0.117111,-0.31225 -0.234215,-0.46839 -0.351313,-0.46841 l -0.468418,0 c -0.11711,2e-5 -0.234214,0.15616 -0.351313,0.46841 l 0.234208,0.46842 -0.117104,0 c -0.780701,-0.29274 -1.171049,-0.48791 -1.171045,-0.58552 l 0,-0.23421 c -4e-6,-0.60501 0.156135,-0.95633 0.468418,-1.05394 -4e-6,-0.0585 -0.03904,-0.29274 -0.117104,-0.70263 0.07807,-3.27889 0.1171,-5.3087 0.117104,-6.08943 1.229591,-0.25369 2.947122,-0.87825 5.152596,-1.87367 m -2.459193,5.03549 0,0.11711 c 0.01951,0.15616 0.09758,0.23423 0.234209,0.23421 l 0.117104,-0.23421 0,-0.11711 -0.351313,0 m -1.873672,1.75657 c -5e-6,0.11713 0.117099,0.23423 0.351314,0.35131 l 0.117104,0 c 0.156134,3e-5 0.234203,-0.078 0.234209,-0.23421 l 0,-0.1171 c -6e-6,-0.11708 -0.11711,-0.23418 -0.351313,-0.35131 -0.11711,2e-5 -0.234215,0.11713 -0.351314,0.35131 m 3.278925,0.1171 0.351314,0.23421 0.117104,0 c 0.15613,3e-5 0.2342,-0.078 0.234209,-0.23421 l 0,-0.1171 c -9e-6,-0.11708 -0.117114,-0.23418 -0.351313,-0.35131 -0.117114,2e-5 -0.234218,0.15616 -0.351314,0.46841 m 9.836775,-0.1171 c -1.9e-5,0.11713 0.117085,0.23423 0.351313,0.35131 l 0.117104,0 c 0.15612,3e-5 0.23419,-0.078 0.234209,-0.23421 l 0,-0.1171 c -1.9e-5,-0.11708 -0.117123,-0.23418 -0.351313,-0.35131 -0.117123,2e-5 -0.234228,0.11713 -0.351313,0.35131 m -11.593342,1.63946 c 0.117098,0.31231 0.234202,0.46844 0.351314,0.46842 l 0.234209,0 c 0.234201,2e-5 0.351305,-0.15611 0.351313,-0.46842 -0.05856,-0.23418 -0.214699,-0.39032 -0.468418,-0.46842 -0.117112,3e-5 -0.273251,0.15617 -0.468418,0.46842 m 3.630239,-0.46842 -0.351314,0.46842 c 0.117094,0.31231 0.234199,0.46844 0.351314,0.46842 l 0.234208,0 c 0.234198,2e-5 0.351303,-0.15611 0.351314,-0.46842 -0.07808,-0.31225 -0.273255,-0.46839 -0.585522,-0.46842 m 6.557849,0 -0.351313,0.46842 c 0.117087,0.31231 0.234192,0.46844 0.351313,0.46842 l 0.234209,0 c 0.234191,2e-5 0.351296,-0.15611 0.351313,-0.46842 -0.07809,-0.31225 -0.273261,-0.46839 -0.585522,-0.46842 m 2.927611,0.46842 c 0.117085,0.31231 0.234189,0.46844 0.351314,0.46842 l 0.234209,0 c 0.234188,2e-5 0.351292,-0.15611 0.351313,-0.46842 -0.05857,-0.23418 -0.214712,-0.39032 -0.468418,-0.46842 -0.253746,0.0781 -0.409885,0.23424 -0.468418,0.46842 m -11.593341,1.63946 c 0.156131,0.35134 0.31227,0.54651 0.468418,0.58553 l 0.234209,0 c 0.312269,-0.15612 0.468408,-0.35129 0.468418,-0.58553 -0.117114,-0.31225 -0.234218,-0.46839 -0.351314,-0.46841 l -0.468417,0 c -0.07808,2e-5 -0.195183,0.15616 -0.351314,0.46841 m 9.836775,0 c 0.15612,0.35134 0.31226,0.54651 0.468417,0.58553 l 0.234209,0 c 0.31226,-0.15612 0.468399,-0.35129 0.468418,-0.58553 -0.117124,-0.31225 -0.234228,-0.46839 -0.351313,-0.46841 l -0.468418,0 c -0.117123,2e-5 -0.234227,0.15616 -0.351313,0.46841 m 3.278924,0 c 0.156118,0.35134 0.312257,0.54651 0.468418,0.58553 l 0.234209,0 c 0.312256,-0.15612 0.468395,-0.35129 0.468418,-0.58553 -0.117127,-0.31225 -0.234231,-0.46839 -0.351313,-0.46841 l -0.468418,0 c -0.117127,2e-5 -0.234231,0.15616 -0.351314,0.46841 m -8.080207,0.46842 c 2.029795,0.40989 3.044699,1.19059 3.044716,2.34209 0.07805,0.81975 0.117088,1.48334 0.117104,1.99078 -0.175673,0.78071 -0.370847,1.17106 -0.585522,1.17104 -2.224999,-0.23419 -3.825425,-0.35129 -4.801283,-0.35131 -0.878294,2e-5 -1.58092,0.19519 -2.10788,0.58552 l -0.585522,0 0,-0.23421 3.044716,-4.21576 c 0.702614,-0.85874 1.327171,-1.28813 1.873671,-1.28815 m 6.440745,0.93684 0,0.46842 c 0.136602,0.3123 0.409845,0.46843 0.819731,0.46841 0.312258,-0.39032 0.468397,-0.62453 0.468418,-0.70262 -0.15616,-0.35129 -0.312299,-0.54647 -0.468418,-0.58552 l -0.468418,0 c -0.117124,2e-5 -0.234229,0.11712 -0.351313,0.35131 m 1.522358,1.99077 c -2.2e-5,0.3123 0.234187,0.54651 0.702627,0.70263 0.468395,-0.15612 0.702604,-0.31226 0.702626,-0.46842 l 0,-0.58552 c -0.117127,-0.31226 -0.39037,-0.4684 -0.819731,-0.46842 -0.39037,0.11713 -0.585544,0.39037 -0.585522,0.81973 m -1.756567,1.63947 0,0.1171 c 0.15612,0.39037 0.429363,0.58554 0.819731,0.58552 0.546467,2e-5 0.81971,-0.27322 0.819731,-0.81973 -2.1e-5,-0.40985 -0.273264,-0.68309 -0.819731,-0.81973 -0.468438,2e-5 -0.741681,0.3123 -0.819731,0.93684 m -8.314416,1.99077 c -1.2e-5,0.11712 0.117093,0.23423 0.351313,0.35132 l 1.405254,0 0,1.17104 c -0.117118,0.31229 -0.390361,0.46843 -0.819732,0.46842 -0.409877,1e-5 -0.683121,-0.15613 -0.819731,-0.46842 l 0,-1.17104 -0.819731,0 0,-0.23421 c 0.351302,1e-5 0.585511,-0.039 0.702627,-0.11711 m 1.990775,0.11711 0.117105,0 0,0.23421 -0.351313,0 c 0.0195,-0.15613 0.09757,-0.2342 0.234208,-0.23421 m 1.639463,0.23421 1.171044,0 c 0.156123,0.0195 0.234193,0.0976 0.234209,0.2342 l 0,0.93684 c -0.11712,0.31229 -0.390364,0.46843 -0.819731,0.46842 -0.409881,1e-5 -0.683124,-0.15613 -0.819731,-0.46842 l 0,-0.93684 c 0.0195,-0.15612 0.09757,-0.23419 0.234209,-0.2342 m -6.55785,0.2342 1.171045,0 c 0.156129,0.0195 0.234199,0.0976 0.234209,0.23421 l 0,0.70263 c -10e-6,0.11712 -0.156149,0.27326 -0.468418,0.46842 l -0.351313,0 c -0.409875,1e-5 -0.683118,-0.15613 -0.819732,-0.46842 l 0,-0.70263 c 0.01951,-0.15612 0.09758,-0.23419 0.234209,-0.23421 m 2.224985,1.40526 0.234209,0 c 0.156128,0.0195 0.234198,0.0976 0.234209,0.23421 l -0.468418,0 0,-0.23421 m 3.044716,0 0.234209,0 c 0.546473,1e-5 0.819716,0.27326 0.819731,0.81973 -1.5e-5,0.40988 -0.273258,0.68312 -0.819731,0.81973 -0.468432,1e-5 -0.741675,-0.31227 -0.819731,-0.93684 l 0,-0.1171 c -1.4e-5,-0.0976 0.19516,-0.29275 0.585522,-0.58552 m 3.278925,0 0.234208,0 c 0.54647,1e-5 0.819714,0.27326 0.819732,0.81973 l 0,0.1171 c -0.195192,0.33181 -0.468436,0.56602 -0.819732,0.70263 -0.468434,1e-5 -0.741678,-0.31227 -0.819731,-0.93684 l 0,-0.1171 c -1.6e-5,-0.0976 0.195158,-0.29275 0.585523,-0.58552 m -1.405254,1.63946 c 0.468402,0.15615 0.702611,0.31229 0.702627,0.46842 l 0,0.35131 c -1.6e-5,0.11712 -0.234225,0.35133 -0.702627,0.70263 -0.312294,-0.1171 -0.546502,-0.31227 -0.702627,-0.58552 l 0,-0.35132 c 0.156125,-0.29275 0.390333,-0.48792 0.702627,-0.58552"
       transform="matrix(1.200851,0,0,1.200851,-27.00003,-174.81536)" />
    <rect
       transform="matrix(1.2986978,0,0,1.2989027,-29.644462,-276.07103)"
       ry="4.4230294"
       rx="2.168237"
       y="216.68739"
       x="26.975845"
       height="40.981037"
       width="40.981037"
       id="rect4203"
       style="opacity:0.5;fill:url(#radialGradient4677);fill-opacity:1;fill-rule:evenodd;stroke:#f7dc89;stroke-width:5.6525569;stroke-linejoin:round;stroke-miterlimit:4;stroke-opacity:1;stroke-dasharray:none;filter:url(#filter5249)" />
    <g
       style="display:inline"
       id="g3020"
       transform="matrix(0.82679695,0,0,0.82679695,-6.369677,-164.23701)">
      <path
         d="m 34.835186,219.79791 c 0,-3.29915 0.884619,-5.09403 5.769252,-5.94874 3.316254,-0.5812 7.568407,-0.65385 11.534233,0 3.132491,0.5171 5.769253,2.85044 5.769253,5.94874 l 0,10.88466 c 0,3.19232 -2.559839,5.80772 -5.769253,5.80772 l -11.534233,0 c -3.914544,0 -7.213702,3.33761 -7.213702,7.11113 l 0,5.22225 -3.965828,0 c -3.354714,0 -5.307712,-2.41881 -6.128228,-5.80344 -1.106842,-4.54703 -1.059834,-7.25644 0,-11.61116 0.918806,-3.79916 3.854715,-5.80344 7.209429,-5.80344 l 4.329077,0 11.538505,0 0,-1.453 -11.538505,0 0,-4.35472 0,0 z"
         style="fill:#606060;fill-opacity:1"
         id="path1948"
         inkscape:connector-curvature="0" />
      <path
         d="m 57.907924,254.63138 c 0,3.29916 -2.863259,4.97011 -5.769253,5.80344 -4.371811,1.25642 -7.880371,1.06411 -11.534233,0 -3.051293,-0.88889 -5.769252,-2.70514 -5.769252,-5.80344 l 0,-10.88466 c 0,-3.13249 2.611121,-5.80771 5.769252,-5.80771 l 11.534233,0 c 3.841896,0 7.213703,-3.32053 7.213703,-7.25644 l 0,-5.07694 4.324804,0 c 3.358986,0 4.940189,2.49573 5.769253,5.80344 1.153851,4.59403 1.205132,8.02995 0,11.61116 -1.166672,3.47864 -2.414539,5.80344 -5.769253,5.80344 l -5.769254,0 -11.534233,0 0,1.45299 11.534233,0 0,4.35472 z"
         style="fill:#909090;fill-opacity:1"
         id="path1950"
         inkscape:connector-curvature="0" />
    </g>
  </g>
</svg>
